<svg width="1290" height="356" viewBox="0 0 1290 356" fill="none" xmlns="http://www.w3.org/2000/svg">
<mask id="mask0_194_328" style="mask-type:alpha" maskUnits="userSpaceOnUse" x="4" y="0" width="1282" height="348">
<rect x="4" width="1282" height="348" fill="#D9D9D9"/>
</mask>
<g mask="url(#mask0_194_328)">
<path d="M839.5 37.5004C324.3 196.3 70.8333 88.3337 8.5 14.5004V509.5H839.5L3264.5 1077.5C2589.33 622 1354.7 -121.3 839.5 37.5004Z" fill="#FDBC57" stroke="#F9A541"/>
<path d="M852.5 93.5C431.7 199.9 103.5 75.5 -8 0V446.5L1394.5 517.5L1447.5 157.5C1424.5 91.8333 1273.3 -12.9 852.5 93.5Z" fill="#F9A541" stroke="#F9A541"/>
<path d="M361.5 184.5C136.7 125.3 23.8333 130.167 -4.5 140V371.5H1326L1293 89C994 -50.5 642.5 258.5 361.5 184.5Z" fill="#EE8522"/>
<path d="M492 192.5C237.2 285.7 60.5 266.667 4 245.5V326H52.5L1110.5 344L1323 220C1152.17 172 746.8 99.3 492 192.5Z" fill="#EF5F24"/>
<path d="M534.5 232.5C490.9 231.3 161.667 264.333 2.5 281V348H1291L1347 160C1291.5 216 1137.4 318.6 965 281C749.5 234 589 234 534.5 232.5Z" fill="#B24000" stroke="#B24000"/>
</g>
</svg>
